#N canvas 776 282 1032 708 12;
#X obj 220 45 netreceive -u -b 8000;
#X obj 221 89 oscparse;
#X obj 60 540 route /hand/distance /hand/center /hand/zone /hand/gesture;
#X obj 71 608 print d;
#X obj 223 609 print d;
#X obj 145 608 print c;
#X obj 316 614 print z;
#X obj 413 610 print g;
#X obj 228 177 print dist;
#X text 404 41 Escolta missatge OSC entrants al port 8000;
#X text 301 83 Analitza missatges OSC i els converteix en una llista amb l'@ i els args;
#X text 380 132 separa missatges segons l'@ OSC;
#X text 264 216 escales la distancia a una frequencia mes audible;
#X text 276 266 offset per evitar sons massa greus;
#X obj 222 310 osc~;
#X obj 227 387 dac~;
#X obj 220 349 *~ 0.2;
#X obj 223 228 * 10;
#X obj 221 278 + 200;
#X obj 219 137 route /hand/distance;
#X connect 0 0 1 0;
#X connect 1 0 19 0;
#X connect 2 1 5 0;
#X connect 2 2 4 0;
#X connect 2 3 6 0;
#X connect 2 4 7 0;
#X connect 14 0 16 0;
#X connect 16 0 15 0;
#X connect 17 0 18 0;
#X connect 18 0 14 0;
#X connect 19 1 8 0;
#X connect 19 1 17 0;
